/* XPM */
static char *player_right[] = {
"40 40 3 1",
"  c #87CEEB",
". c #4B0082",
"X c white",
"                                        ",
"                                        ",
"                                        ",
"                                        ",
"             ................           ",
"            ..................          ",
"           ....................         ",
"           ....................         ",
"          ......................        ",
"          .....          XX.....        ",
"          ....          XXX ....        ",
"         .....         XXXX .....       ",
"         .....        XXXXX .....       ",
"         .....       XXXXXX .....       ",
"         .....     XXXXXXXX .....       ",
"         .....    XXXXXXXXX .....       ",
"         ......            ......       ",
"         ........................       ",
"         ........................       ",
"         ........................       ",
"         ........................       ",
"         ........................       ",
"         ........................       ",
"         ........................       ",
"         ........................       ",
"         ........................       ",
"         ........... ............       ",
"         ........... ............       ",
"         ........... ............       ",
"         ........... ............       ",
"         ........... ............       ",
"         ........... ............       ",
"         ........... ............       ",
"         ........... ............       ",
"          .........   ..........        ",
"          .........   ..........        ",
"           ......       ......          ",
"                                        ",
"                                        ",
"                                        "
};

