/* XPM */
static char *player_down[] = {
"40 40 3 1",
"  c #87CEEB",
". c #4B0082",
"X c white",
"                                        ",
"                                        ",
"                                        ",
"                                        ",
"             ................           ",
"            ..................          ",
"           ....................         ",
"           ....................         ",
"          ......................        ",
"          .....            .....        ",
"          ....              ....        ",
"          ....              ....        ",
"         .....              .....       ",
"         .....              .....       ",
"         .....    XXXXXX    .....       ",
"         .....   XXXXXXXX   .....       ",
"         ......   XXXXXX   ......       ",
"         ........................       ",
"         ........................       ",
"         ........................       ",
"         ........................       ",
"         ........................       ",
"         ........................       ",
"         ........................       ",
"         ........................       ",
"         ........................       ",
"         ........................       ",
"         ........... ............       ",
"         ........... ............       ",
"         ........... ............       ",
"         ........... ............       ",
"         ........... ............       ",
"         ........... ............       ",
"         ........... ............       ",
"         ........... ............       ",
"          .........   ..........        ",
"          .........   ..........        ",
"           ......       ......          ",
"                                        ",
"                                        "
};
