/* XPM */
static char *player_left[] = {
"40 40 3 1",
"  c #87CEEB",
". c #4B0082",
"X c white",
"                                        ",
"                                        ",
"                                        ",
"                                        ",
"             ................           ",
"            ..................          ",
"           ....................         ",
"           ....................         ",
"          ......................        ",
"          ....XX            .....       ",
"          ....XXX           ....        ",
"         .....XXXX         .....        ",
"         .....XXXXXXX      .....        ",
"         .....XXXXXXXX     .....        ",
"         .....XXXXXXXXX    .....        ",
"         .....XXXXXXXXX    .....        ",
"         ......            ......       ",
"         ........................       ",
"         ........................       ",
"         ........................       ",
"         ........................       ",
"         ........................       ",
"         ........................       ",
"         ........................       ",
"         ........................       ",
"         ........................       ",
"         ........... ............       ",
"        ...........   ............      ",
"       ...........     ............     ",
"       ...........     ............     ",
"       ...........     ............     ",
"      ...........       ............    ",
"      ...........       ............    ",
"      ...........       ............    ",
"       .........         ..........     ",
"       .........         ..........     ",
"        ......             ......       ",
"                                        ",
"                                        ",
"                                        "
};

